<?xml version="1.0" encoding="UTF-8"?>
<svg version="1.1" xmlns="http://www.w3.org/2000/svg" width="106" height="33">
<path d="M0 0 C0.99 0.33 1.98 0.66 3 1 C3 3.31 3 5.62 3 8 C4.65 8 6.3 8 8 8 C8.33 6.35 8.66 4.7 9 3 C9.99 3 10.98 3 12 3 C13.90288558 8.82758708 15.00366625 13.98900126 13 20 C12.01 20 11.02 20 10 20 C9.67 17.69 9.34 15.38 9 13 C6.69 13 4.38 13 2 13 C2.185625 14.093125 2.37125 15.18625 2.5625 16.3125 C3 20 3 20 2 23 C1.01 23 0.02 23 -1 23 C-3.222209 16.20265483 -3.29484608 10.04855727 -2 3 C-1.34 2.01 -0.68 1.02 0 0 Z " fill="#EDF8F8" transform="translate(8,7)"/>
<path d="M0 0 C2.46800047 1.15173355 4.04783565 2.04783565 6 4 C6.66 3.34 7.32 2.68 8 2 C10.26274788 2.35355436 11.95088852 2.97544426 14 4 C14.45375 3.34 14.9075 2.68 15.375 2 C15.91125 1.34 16.4475 0.68 17 0 C17.66 0 18.32 0 19 0 C20.07891878 3.33483986 20.06074182 4.82789817 18.875 8.1875 C16.78485138 11.32272293 15.63028591 12.16224171 12 13 C11.34 12.67 10.68 12.34 10 12 C10 11.34 10 10.68 10 10 C9.34 10 8.68 10 8 10 C7.67 10.99 7.34 11.98 7 13 C4.6875 12.9375 4.6875 12.9375 2 12 C-0.03797068 8.46751749 -1.12326143 6.15865746 -0.6875 2.0625 C-0.460625 1.381875 -0.23375 0.70125 0 0 Z " fill="#E0F2F3" transform="translate(53,14)"/>
<path d="M0 0 C0.66 0.66 1.32 1.32 2 2 C1.66666667 3.66666667 1.33333333 5.33333333 1 7 C1.66 7.66 2.32 8.32 3 9 C2.75 11.0625 2.75 11.0625 2 13 C-1.18666086 14.59333043 -4.53199853 14.38375426 -8 14 C-10.72842172 12.41575513 -10.95540222 11.13676652 -11.9375 8.125 C-12 5 -12 5 -10.25 2.1875 C-6.77643866 -1.18957352 -4.49585753 -1.26806238 0 0 Z " fill="#D2E3E7" transform="translate(37,15)"/>
<path d="M0 0 C3.32809053 1.66404526 3.75202116 3.75846943 4.89453125 7.1796875 C5.375 9.1875 5.375 9.1875 5.375 12.1875 C0.61447038 14.16137813 -2.58988101 14.1945238 -7.625 13.1875 C-9.1088842 10.30216961 -9.75273845 8.78361279 -9.0625 5.5625 C-6.7926381 1.81229338 -4.37532567 0.31252326 0 0 Z M-2.625 5.1875 C-2.955 6.8375 -3.285 8.4875 -3.625 10.1875 C-2.965 9.5275 -2.305 8.8675 -1.625 8.1875 C-1.955 7.1975 -2.285 6.2075 -2.625 5.1875 Z " fill="#F3FAFB" transform="translate(83.625,12.8125)"/>
<path d="M0 0 C1.9375 0.375 1.9375 0.375 4 1 C5.35149725 3.7029945 4.60136874 5.05951421 4 8 C3.9340265 10.10323534 3.91437755 12.20835724 3.9375 14.3125 C3.95103516 15.91544922 3.95103516 15.91544922 3.96484375 17.55078125 C3.97644531 18.35902344 3.98804688 19.16726562 4 20 C2.34385343 20.38218767 0.67542976 20.71395102 -1 21 C-2.83200761 19.16799239 -2.1734944 16.33438305 -2.1875 13.875 C-2.15972074 8.82473132 -1.75603689 4.71934915 0 0 Z " fill="#B4D2D8" transform="translate(45,7)"/>
<path d="M0 0 C3.25 -0.3125 3.25 -0.3125 7 0 C9.5 2.125 9.5 2.125 11 5 C10.75 8.3125 10.75 8.3125 10 11 C9.01 11.33 8.02 11.66 7 12 C6.34 9.69 5.68 7.38 5 5 C4.01 6.98 3.02 8.96 2 11 C1.01 11 0.02 11 -1 11 C-2.26264601 6.70700357 -1.62950412 4.12168689 0 0 Z " fill="#E4F2F5" transform="translate(93,15)"/>
<path d="M0 0 C0.66 0 1.32 0 2 0 C2 1.65 2 3.3 2 5 C3.98 5 5.96 5 8 5 C7.67 5.99 7.34 6.98 7 8 C5.02 8 3.04 8 1 8 C1.5259375 8.7734375 1.5259375 8.7734375 2.0625 9.5625 C3.3615641 12.94006667 2.67217681 15.50468057 2 19 C1.01 19 0.02 19 -1 19 C-2.5013979 12.39384924 -1.30737687 6.58010343 0 0 Z " fill="#F4FCFD" transform="translate(8,11)"/>
<path d="M0 0 C0.66 2.97 1.32 5.94 2 9 C1.34 8.67 0.68 8.34 0 8 C-0.40729228 5.67843403 -0.74438677 3.3431213 -1 1 C-2.32 1.33 -3.64 1.66 -5 2 C-4.34 2.33 -3.68 2.66 -3 3 C-3.33 4.32 -3.66 5.64 -4 7 C-4.33 6.34 -4.66 5.68 -5 5 C-5.33 6.32 -5.66 7.64 -6 9 C-6.66 9 -7.32 9 -8 9 C-8 8.01 -8 7.02 -8 6 C-8.66 6 -9.32 6 -10 6 C-10 7.65 -10 9.3 -10 11 C-11.125 9.3125 -11.125 9.3125 -12 7 C-11.26159183 3.63614056 -10.36972444 2.29977657 -7.6875 0.125 C-4.58832651 -1.17232844 -3.15645305 -0.9920281 0 0 Z " fill="#ACC3CD" transform="translate(86,14)"/>
<path d="M0 0 C0.99 0 1.98 0 3 0 C2.91291962 2.10494301 2.80474307 4.20902142 2.6875 6.3125 C2.62949219 7.48425781 2.57148437 8.65601563 2.51171875 9.86328125 C1.98395232 13.0983686 1.57619276 14.08684881 -1 16 C-1.02685095 13.52076199 -1.04676547 11.0418116 -1.0625 8.5625 C-1.07506836 7.50192383 -1.07506836 7.50192383 -1.08789062 6.41992188 C-1.09653588 4.61306441 -1.05220011 2.80612397 -1 1 C-0.67 0.67 -0.34 0.34 0 0 Z " fill="#F2FEFD" transform="translate(45,7)"/>
<path d="M0 0 C1 3 1 3 1 6 C1.3062434 7.33981486 1.63451555 8.67511887 2 10 C-1.6441774 12.4294516 -3.71241272 12.16179575 -8 12 C-8 11.67 -8 11.34 -8 11 C-6.02 11 -4.04 11 -2 11 C-2 10.34 -2 9.68 -2 9 C-2.804375 8.87625 -3.60875 8.7525 -4.4375 8.625 C-5.283125 8.41875 -6.12875 8.2125 -7 8 C-7.33 7.34 -7.66 6.68 -8 6 C-7.401875 5.896875 -6.80375 5.79375 -6.1875 5.6875 C-3.68196685 4.90004672 -2.67240757 3.99096139 -1 2 C-0.67 1.34 -0.34 0.68 0 0 Z " fill="#A6C2CC" transform="translate(38,17)"/>
<path d="M0 0 C0.99 0.33 1.98 0.66 3 1 C3 3.31 3 5.62 3 8 C2.67 6.68 2.34 5.36 2 4 C1.34 4 0.68 4 0 4 C0.04125 5.2375 0.0825 6.475 0.125 7.75 C0.13658291 11.01637962 -0.1431298 13.2146947 -2 16 C-2.33 15.67 -2.66 15.34 -3 15 C-2.96195593 13.03926728 -2.8445406 11.07980393 -2.6875 9.125 C-2.60886719 8.05507812 -2.53023438 6.98515625 -2.44921875 5.8828125 C-2 3 -2 3 0 0 Z " fill="#B2CCD0" transform="translate(8,7)"/>
<path d="M0 0 C0.80967438 2.91482778 1.21845993 4.46113217 0.0625 7.3125 C-0.4634375 8.1478125 -0.4634375 8.1478125 -1 9 C-1.33 8.34 -1.66 7.68 -2 7 C-2.99 7 -3.98 7 -5 7 C-5.33 7.66 -5.66 8.32 -6 9 C-6.8125 7.3125 -6.8125 7.3125 -7 5 C-2.79545455 0 -2.79545455 0 0 0 Z " fill="#D1E9EA" transform="translate(72,14)"/>
<path d="M0 0 C0.99 0 1.98 0 3 0 C3.66 0.99 4.32 1.98 5 3 C7.05925139 3.72382467 7.05925139 3.72382467 9 4 C9 4.66 9 5.32 9 6 C2.56512141 7.33554084 2.56512141 7.33554084 0 5.8125 C-1 4 -1 4 -0.6875 1.8125 C-0.460625 1.214375 -0.23375 0.61625 0 0 Z " fill="#F2FAFB" transform="translate(27,22)"/>
<path d="M0 0 C0.66 0 1.32 0 2 0 C2 0.99 2 1.98 2 3 C2.99 3 3.98 3 5 3 C5.33 2.34 5.66 1.68 6 1 C6 2.32 6 3.64 6 5 C6.66 5.33 7.32 5.66 8 6 C7.67 6.33 7.34 6.66 7 7 C4.66055264 6.71269945 2.3260857 6.38063221 0 6 C0 4.02 0 2.04 0 0 Z " fill="#E4F0F3" transform="translate(76,20)"/>
<path d="M0 0 C2.475 0.495 2.475 0.495 5 1 C5.625 2.8125 5.625 2.8125 6 5 C5.01 6.485 5.01 6.485 4 8 C2.68 7.67 1.36 7.34 0 7 C0.66 6.01 1.32 5.02 2 4 C1.34 3.34 0.68 2.68 0 2 C0 1.34 0 0.68 0 0 Z " fill="#F1FBFA" transform="translate(32,14)"/>
<path d="M0 0 C0.99 0 1.98 0 3 0 C2.34 3.3 1.68 6.6 1 10 C0.01 10 -0.98 10 -2 10 C-2.33 8.35 -2.66 6.7 -3 5 C-2.34 5 -1.68 5 -1 5 C-0.67 3.35 -0.34 1.7 0 0 Z " fill="#F7FEFB" transform="translate(94,16)"/>
<path d="M0 0 C1.98 0.495 1.98 0.495 4 1 C4 3.31 4 5.62 4 8 C2 8 2 8 0.3125 6.8125 C-1 5 -1 5 -0.6875 2.3125 C-0.460625 1.549375 -0.23375 0.78625 0 0 Z " fill="#F6FDFC" transform="translate(62,17)"/>
<path d="M0 0 C0.99 0 1.98 0 3 0 C3 2.31 3 4.62 3 7 C2.67 6.34 2.34 5.68 2 5 C1.01 5 0.02 5 -1 5 C-0.67 3.35 -0.34 1.7 0 0 Z " fill="#D8EDE5" transform="translate(45,7)"/>
<path d="M0 0 C0.66 0.33 1.32 0.66 2 1 C2 2.65 2 4.3 2 6 C1.67 5.01 1.34 4.02 1 3 C0.34 3 -0.32 3 -1 3 C-1 4.65 -1 6.3 -1 8 C-2.0625 6.1875 -2.0625 6.1875 -3 4 C-2.67 3.01 -2.34 2.02 -2 1 C-1.34 0.67 -0.68 0.34 0 0 Z " fill="#B1CBD7" transform="translate(77,17)"/>
</svg>
